<!-- Generated by IcoMoon.io -->
<svg version="1.1" xmlns="http://www.w3.org/2000/svg" width="768" height="768" viewBox="0 0 768 768">
<g id="icomoon-ignore">
</g>
<path fill="#000" d="M664.192 171.040c-6.112-7.008-14.912-11.040-24.192-11.040h-442.208l-6.24-37.248c-2.56-15.424-15.904-26.752-31.552-26.752h-72c-17.696 0-32 14.304-32 32s14.304 32 32 32h44.896l59.52 357.248c0.256 1.44 0.992 2.624 1.44 3.968 0.512 1.696 0.928 3.296 1.728 4.832 1.024 2.112 2.4 3.904 3.84 5.728 0.992 1.248 1.888 2.496 3.040 3.584 1.856 1.728 4 2.944 6.176 4.16 1.216 0.672 2.272 1.568 3.584 2.080 3.712 1.504 7.616 2.4 11.744 2.4 0.032 0 352.032 0 352.032 0 17.696 0 32-14.304 32-32s-14.304-32-32-32h-324.896l-5.312-32h362.208c15.936 0 29.44-11.712 31.68-27.456l32-224c1.312-9.216-1.44-18.528-7.488-25.504zM603.104 224l-9.12 64h-113.984v-64h123.104zM448 224v64h-96v-64h96zM448 320v64h-96v-64h96zM320 224v64h-96c-1.696 0-3.232 0.48-4.736 0.96l-10.816-64.96h111.552zM224.448 320h95.552v64h-84.896l-10.656-64zM480 384v-64h109.376l-9.12 64h-100.256z"></path>
<path fill="#000" d="M320 624c0 26.51-21.49 48-48 48s-48-21.49-48-48c0-26.51 21.49-48 48-48s48 21.49 48 48z"></path>
<path fill="#000" d="M608 624c0 26.51-21.49 48-48 48s-48-21.49-48-48c0-26.51 21.49-48 48-48s48 21.49 48 48z"></path>
</svg>
